#!OML:ASF F:\VICON\USERDATA\INSTALL\rory3\rory3.ASF
:FULLY-SPECIFIED
:DEGREES
19
root 0.5613515550507565 17.542799297461997 -13.93148890863412 5.199503155207895 0.10282553142811901 -1.8323907487630495
lfemur -9.35283486790222 8.812434591102239 -17.583601839530587
ltibia 16.27760642696702
lfoot -10.921299998870115 2.8451763191884316
ltoes -6.845675229751217
rfemur -10.738005321898234 -3.089869287419446 19.908304767695878
rtibia 19.156206648559976
rfoot -12.948200677014098 -2.0123516640765966
rtoes 3.5732953513139094
lowerback -4.337394761936963 -0.6827209576182529 0.908845499420714
upperback 1.5629076769932517 -1.0384035775560239 1.8822628183369534
thorax 4.064923540446707 -0.518205467138931 1.3519226125653132
lowerneck -12.789399775634385 -0.22519541365668028 -2.442763501712868
upperneck 3.153656083066516 0.025419926780795743 0.9278700768862891
head 3.2924059431587267 0.016671647381476196 0.7426405869689067
lclavicle 1.8617364481549762e-16 -2.3548357580811256e-15
lhumerus -22.97140202268305 -2.573759274514457 90.16259406699974
lradius 19.488102492106133
lwrist 3.1312623369138026
lhand -24.342599432633847 -2.825854321223888
lfingers 7.12502
lthumb 2.14647056724462 27.143085835919077
rclavicle 1.8617364481549762e-16 -2.3548357580811256e-15
rhumerus -25.583299157278862 -20.721895404950438 -79.2777984982789
rradius 24.456301051483
rwrist 34.03870568030268
rhand -16.894710258247237 -27.263888406992777
rfingers 7.12502
rthumb 9.336889663467115 -57.03708899400936
20
root 0.5673993844230436 17.54119930930192 -13.93678924702494 5.166883072215304 0.059220405826689415 -1.8120209518163992
lfemur -9.350014887707918 8.81379458755711 -17.627801589889717
ltibia 16.318207120642352
lfoot -10.915300004737478 2.881776470892757
ltoes -6.862225169866238
rfemur -10.755205343745503 -3.0950692676409357 19.862005041064325
rtibia 19.21070600968102
rfoot -12.965200607912966 -1.9775416901535143
rtoes 3.455685626887746
lowerback -4.300594923945711 -0.6834579600999993 0.8989496544137382
upperback 1.5907574859489932 -1.0376735911307422 1.8572732148589497
thorax 4.072623538182133 -0.517788463002838 1.332022903475043
lowerneck -12.809599713706035 -0.22607739397960813 -2.4526833947202786
upperneck 3.1995459605841905 0.023961079369068328 0.9626169226653726
head 3.3125959079758873 0.0170992244460747 0.7561923562161632
lclavicle 1.861736356096506e-16 -2.3548357597600323e-15
lhumerus -22.961501954171325 -2.463709454025556 90.06849412615998
lradius 19.46770248814185
lwrist 3.149982386861817
lhand -24.328199504946717 -2.844594060996165
lfingers 7.12502
lthumb 2.160410488714927 27.12418592087519
rclavicle 1.861736356096506e-16 -2.3548357597600323e-15
rhumerus -25.637199092367585 -20.781895372471467 -79.1926986843004
rradius 24.351301248907866
rwrist 34.19010527462986
rhand -16.937309923651377 -27.213088690721385
rfingers 7.12502
rthumb 9.295799808402252 -56.988089480490416
21
root 0.5723702232993061 17.539899315123158 -13.943789433673546 5.132403220814323 0.0730947447610295 -1.787561190356606
lfemur -9.364194846854309 8.808354601737626 -17.6735013203257
ltibia 16.363806136592665
lfoot -10.919700000401528 2.881086465915621
ltoes -6.9220052299486206
rfemur -10.763505164994285 -3.102289221619363 19.812905326319232
rtibia 19.261006737811492
rfoot -12.986400596930684 -1.9735516939226327
rtoes 3.4976653514671785
lowerback -4.235104786643362 -0.7047746274556104 0.8744920403133626
upperback 1.6177473150875645 -1.063393331577839 1.8439834062446163
thorax 4.0641632866276876 -0.5310841910473978 1.3306329360883475
lowerneck -12.853099571756822 -0.21889343041049503 -2.4338035983513353
upperneck 3.2837159304387695 0.03416327379877626 0.9252071115264051
head 3.3501058379403785 0.020314342937422847 0.7417855999346327
lclavicle 1.8617364556430283e-16 -2.354835773750892e-15
lhumerus -23.004801892966615 -2.306889670867455 89.99029412369109
lradius 19.48520260460996
lwrist 3.0366424079510317
lhand -24.315599575313204 -2.748144554789439
lfingers 7.12502
lthumb 2.1725804274533225 27.220585494709148
rclavicle 1.8617364556430283e-16 -2.354835773750892e-15
rhumerus -25.6768990373702 -20.710195476643477 -79.14159873005126
rradius 24.37110120271051
rwrist 34.10270539520188
rhand -16.915010255891723 -27.270988245633127
rfingers 7.12502
rthumb 9.317379797372496 -57.04508906143515
22
root 0.5765511016412128 17.538399320904908 -13.954989425756171 5.128033091438838 0.1309454408472872 -1.7619714394019514
lfemur -9.461375118802335 8.73707488452257 -17.722601045606886
ltibia 16.463706021519247
lfoot -10.91620000363891 2.895406467604213
ltoes -6.91853526963642
rfemur -10.832005713879171 -3.1172091479196182 19.770505626550086
rtibia 19.3385065050958
rfoot -12.990300596116251 -2.001451626092822
rtoes 3.4883854649916364
lowerback -4.143845066802795 -0.7374471057327503 0.841254562404089
upperback 1.62593722970134 -1.103302907937332 1.8424834315623495
thorax 4.022293486771 -0.551838762842527 1.3456927109692713
lowerneck -12.874299513890717 -0.21598845998716087 -2.479473099481245
upperneck 3.4169158998785925 0.04561820623141477 0.929546094527023
head 3.400945724310378 0.024663895764933663 0.7530504089773071
lclavicle 1.8617363904532868e-16 -2.354835774870163e-15
lhumerus -23.080901881930313 -2.2018497981848073 89.9471942372729
lradius 19.495302493505292
lwrist 2.9576727025140457
lhand -24.28129975386309 -2.7799143776637085
lfingers 7.12502
lthumb 2.2057102451230173 27.18838558936356
rclavicle 1.8617363904532868e-16 -2.354835774870163e-15
rhumerus -25.7334989630619 -20.595195646293313 -79.0843988397578
rradius 24.42830109902551
rwrist 34.03610554105686
rhand -16.983109852760883 -27.18378895640323
rfingers 7.12502
rthumb 9.251600079987236 -56.9607895749891
23
root 0.5811759651225219 17.535599344663733 -13.9704888536937 5.115593189766818 0.1903361491075013 -1.7547815172566879
lfemur -9.603884881489918 8.702055039218648 -17.756200855008267
ltibia 16.63170616365263
lfoot -10.949499970963888 2.889866502509711
ltoes -6.91421506865435
rfemur -10.923704868743117 -3.097709256955843 19.74640577227705
rtibia 19.452906593737218
rfoot -13.010300605049876 -2.0551115890154596
rtoes 3.4692552297557313
lowerback -3.989785088373203 -0.765307663148189 0.8556503364825881
upperback 1.6594170335047 -1.138482577841389 1.832443587237956
thorax 3.969953549008946 -0.5689444053235118 1.3263229934742506
lowerneck -12.975199193220854 -0.2298743590172576 -2.541132472210629
upperneck 3.7050154184672976 0.03972512955598706 0.931355084343064
head 3.522455202971022 0.019092541974760624 0.7664581802008369
lclavicle 1.8617363997031394e-16 -2.3548357715123503e-15
lhumerus -23.171001722396515 -2.324189638418033 89.92649435570397
lradius 19.622502324393974
lwrist 3.179992300179075
lhand -24.272799800488173 -2.867893951104111
lfingers 7.12502
lthumb 2.2139102013466583 27.100386037874088
rclavicle 1.8617363997031394e-16 -2.3548357715123503e-15
rhumerus -25.664699056958067 -20.58739557134756 -79.05749887797096
rradius 24.381601194452294
rwrist 34.09530561301606
rhand -17.033009681258186 -27.10338958739635
rfingers 7.12502
rthumb 9.203510187779097 -56.88259025336589
24
root 0.5859188191751243 17.531299362048465 -13.995589588652656 5.133643170033956 0.2733798720848917 -1.74937157122197
lfemur -9.897544478341462 8.654505256416366 -17.800000603288133
ltibia 16.946806427994716
lfoot -11.004799914807736 2.8741461966028137
ltoes -6.8923351526784025
rfemur -11.124904882009309 -2.977399893348388 19.729205872012948
rtibia 19.65140594570679
rfoot -13.010100577934784 -2.238911265657472
rtoes 3.29896548818241
lowerback -3.7208453238414916 -0.7882493333331317 0.8872518394862269
upperback 1.695836784434722 -1.1655022733595466 1.8190637969903116
thorax 3.855063658920834 -0.5816211535878084 1.2960634240082005
lowerneck -13.153398616520796 -0.21832540328457317 -2.536372519953055
upperneck 4.157865115941959 0.06410992338314081 0.8690363855052967
head 3.717134678143072 0.025486886722942304 0.7500024599314145
lclavicle 1.8617363261444674e-16 -2.354835759200397e-15
lhumerus -23.18920174369883 -2.621379229243738 89.91529435327934
lradius 19.778002080019714
lwrist 3.5567919514887896
lhand -24.311999593391423 -2.9033438715706983
lfingers 7.12502
lthumb 2.17602040631527 27.065285963824785
rclavicle 1.8617363261444674e-16 -2.354835759200397e-15
rhumerus -25.53209926893532 -20.514895710320136 -79.06889882867395
rradius 24.342001286847008
rwrist 34.17350539053756
rhand -17.044409743739145 -26.973990559063733
rfingers 7.12502
rthumb 9.192480357749407 -56.75369119662796
